<?xml version="1.0" standalone="no"?>
<!DOCTYPE svg PUBLIC "-//W3C//DTD SVG 20010904//EN"
 "http://www.w3.org/TR/2001/REC-SVG-20010904/DTD/svg10.dtd">
<svg version="1.0" xmlns="http://www.w3.org/2000/svg"
 width="201.000000pt" height="201.000000pt" viewBox="0 0 201.000000 201.000000"
 preserveAspectRatio="xMidYMid meet">
<metadata>
Created by potrace 1.11, written by Peter Selinger 2001-2013
</metadata>
<g transform="translate(0.000000,201.000000) scale(0.100000,-0.100000)"
fill="#000000" stroke="none">
<path d="M1109 1514 c-25 -8 -55 -25 -68 -38 -22 -23 -26 -24 -50 -12 -89 46
-207 32 -281 -33 -20 -19 -31 -21 -60 -14 -64 15 -162 8 -211 -14 -89 -40
-155 -120 -161 -193 -2 -27 -10 -36 -49 -56 -48 -24 -80 -60 -94 -102 -13 -42
4 -109 34 -140 27 -26 28 -30 14 -56 -47 -90 20 -205 130 -223 25 -4 55 -20
84 -45 53 -46 93 -67 153 -83 55 -14 154 -12 204 5 33 11 39 10 67 -15 53 -44
97 -58 184 -59 60 0 91 5 125 20 44 20 108 75 127 108 9 16 15 16 53 6 123
-33 268 41 302 153 6 20 17 37 25 37 30 0 104 42 142 80 73 74 88 162 42 249
-14 28 -20 58 -20 94 2 58 0 69 -23 113 -16 30 -84 84 -105 84 -5 0 -22 19
-37 43 -62 97 -183 129 -292 76 l-42 -20 -35 21 c-44 26 -99 31 -158 14z"/>
</g>
</svg>
